<svg width="40" height="40" viewBox="0 0 21 18" fill="none" xmlns="http://www.w3.org/2000/svg">
<path d="M20.9999 10.5C20.9986 10.1909 20.9019 9.88968 20.7229 9.63765C20.5439 9.38562 20.2914 9.19504 19.9999 9.092V4.5C19.9986 3.30693 19.5241 2.16311 18.6804 1.31948C17.8368 0.475854 16.693 0.00132343 15.4999 0H6.49992C5.30685 0.00132343 4.16302 0.475854 3.3194 1.31948C2.47577 2.16311 2.00124 3.30693 1.99992 4.5V9.092C1.67298 9.20495 1.39544 9.42799 1.21479 9.72296C1.03413 10.0179 0.961572 10.3665 1.00953 10.7091C1.05749 11.0516 1.22298 11.3669 1.4777 11.6009C1.73241 11.8349 2.06053 11.9732 2.40592 11.992L4.01892 17.639C4.04907 17.7432 4.11231 17.8348 4.19907 17.8999C4.28584 17.965 4.39143 18.0002 4.49992 18H9.28892C9.38848 17.9999 9.48574 17.97 9.56823 17.9142C9.65072 17.8585 9.71468 17.7793 9.75192 17.687L10.8369 15H11.1519L12.1459 17.674C12.1814 17.7697 12.2454 17.8523 12.3293 17.9106C12.4131 17.9688 12.5128 18.0001 12.6149 18H17.4999C17.6087 18 17.7144 17.9646 17.8012 17.8991C17.888 17.8336 17.9511 17.7416 17.9809 17.637L19.5939 11.99C19.9735 11.9662 20.3299 11.799 20.5909 11.5224C20.8519 11.2458 20.9981 10.8803 20.9999 10.5ZM2.99992 4.5C2.99992 3.57174 3.36867 2.6815 4.02504 2.02513C4.68142 1.36875 5.57166 1 6.49992 1H15.4999C16.4282 1 17.3184 1.36875 17.9748 2.02513C18.6312 2.6815 18.9999 3.57174 18.9999 4.5V9H18.9839C18.9672 7.88505 18.6252 6.79926 17.9999 5.876V4.5C17.9999 3.83696 17.7365 3.20107 17.2677 2.73223C16.7988 2.26339 16.163 2 15.4999 2H6.49992C5.83687 2 5.20099 2.26339 4.73215 2.73223C4.26331 3.20107 3.99992 3.83696 3.99992 4.5V5.876C3.37463 6.79926 3.03263 7.88505 3.01592 9H2.99992V4.5ZM6.49992 5.429C7.82992 5.429 8.91092 7.014 8.98592 9H4.01392C4.08892 7.014 5.16992 5.429 6.49992 5.429ZM9.98392 9C9.89992 6.463 8.37592 4.429 6.49992 4.429C5.96357 4.43787 5.44177 4.60485 4.99992 4.909V4.5C4.99992 4.10218 5.15795 3.72064 5.43926 3.43934C5.72056 3.15804 6.10209 3 6.49992 3H15.4999C15.8977 3 16.2793 3.15804 16.5606 3.43934C16.8419 3.72064 16.9999 4.10218 16.9999 4.5V4.909C16.5581 4.60485 16.0363 4.43787 15.4999 4.429C13.6239 4.429 12.0999 6.463 12.0159 9H9.98392ZM15.4999 5.429C16.8299 5.429 17.9109 7.014 17.9859 9H13.0139C13.0889 7.014 14.1699 5.429 15.4999 5.429ZM17.1229 17H12.9629L11.9689 14.326C11.9334 14.2303 11.8694 14.1477 11.7855 14.0894C11.7017 14.0312 11.602 13.9999 11.4999 14H10.4999C10.4002 13.9999 10.3027 14.0297 10.22 14.0855C10.1373 14.1413 10.0732 14.2205 10.0359 14.313L8.95092 17H4.87692L3.44892 12H18.5489L17.1229 17ZM19.4999 11H2.49992C2.36731 11 2.24013 10.9473 2.14636 10.8536C2.05259 10.7598 1.99992 10.6326 1.99992 10.5C1.99992 10.3674 2.05259 10.2402 2.14636 10.1464C2.24013 10.0527 2.36731 10 2.49992 10H19.4999C19.6325 10 19.7597 10.0527 19.8535 10.1464C19.9472 10.2402 19.9999 10.3674 19.9999 10.5C19.9999 10.6326 19.9472 10.7598 19.8535 10.8536C19.7597 10.9473 19.6325 11 19.4999 11Z" fill="#FFC120"/>
</svg>
