<svg width="40" height="40" viewBox="0 0 21 21" fill="none" xmlns="http://www.w3.org/2000/svg">
<path d="M20.9999 10.75C20.9979 10.3115 20.9715 9.8735 20.9209 9.43797C20.9057 9.31637 20.8464 9.20459 20.7542 9.12385C20.6621 9.04311 20.5434 8.99902 20.4209 8.99997H19.9999V6.49997C19.9973 5.9791 19.8321 5.47207 19.5273 5.04967C19.2225 4.62728 18.7934 4.31064 18.2999 4.14397L19.4999 2.26797C19.5565 2.1793 19.5837 2.07504 19.5776 1.97003C19.5715 1.86503 19.5324 1.76462 19.466 1.68309C19.3995 1.60157 19.309 1.54308 19.2074 1.51594C19.1058 1.48881 18.9982 1.49442 18.8999 1.53197L16.6529 2.38097L15.4349 0.251967C15.3875 0.17997 15.3229 0.120878 15.247 0.0799905C15.171 0.0391035 15.0861 0.0177002 14.9999 0.0177002C14.9137 0.0177002 14.8288 0.0391035 14.7529 0.0799905C14.677 0.120878 14.6124 0.17997 14.5649 0.251967L13.3509 2.38097L11.0999 1.53197C11.0017 1.49442 10.8941 1.48881 10.7924 1.51594C10.6908 1.54308 10.6003 1.60157 10.5339 1.68309C10.4674 1.76462 10.4284 1.86503 10.4223 1.97003C10.4162 2.07504 10.4433 2.1793 10.4999 2.26797L11.6999 4.14397C11.2199 4.30634 10.8009 4.61116 10.4986 5.0178C10.1963 5.42444 10.0251 5.91357 10.0079 6.41997V6.44597C10.0079 6.46397 10.0029 6.48097 10.0029 6.49997V8.99997H3.07492C2.95238 8.99902 2.83377 9.04311 2.74159 9.12385C2.64942 9.20459 2.59011 9.31637 2.57492 9.43797C2.52568 9.87358 2.50064 10.3116 2.49992 10.75C2.5047 11.3036 2.55858 11.8558 2.66092 12.4C2.14584 12.6037 1.7081 12.9646 1.4099 13.4313C1.11171 13.8981 0.968248 14.447 0.999915 15C0.999915 16.583 1.70592 19.673 3.40792 19.991C3.46854 20.0028 3.53015 20.0088 3.59192 20.009C3.88747 19.9873 4.17222 19.8887 4.41792 19.723C4.59096 19.6025 4.7907 19.526 4.99992 19.5C5.20579 19.5329 5.4026 19.6081 5.57792 19.721C5.87251 19.9187 6.22372 20.0146 6.57792 19.994C6.8409 19.9439 7.09129 19.842 7.31448 19.6942C7.53767 19.5463 7.72921 19.3556 7.87792 19.133C9.09085 19.6981 10.4118 19.9939 11.7499 20C11.9499 20 12.1499 19.982 12.3499 19.97C12.3981 19.9874 12.4487 19.9975 12.4999 20H17.4999C18.163 20 18.7988 19.7366 19.2677 19.2677C19.7365 18.7989 19.9999 18.163 19.9999 17.5V14.911C20.6561 13.622 20.9987 12.1963 20.9999 10.75ZM18.9999 6.49997V7.58697L14.9489 4.99997H17.4999C17.8977 4.99997 18.2793 5.158 18.5606 5.43931C18.8419 5.72061 18.9999 6.10214 18.9999 6.49997ZM13.3999 3.46797C13.5114 3.5103 13.6343 3.5114 13.7466 3.47106C13.8588 3.43072 13.9529 3.3516 14.0119 3.24797L14.9999 1.50897L15.9919 3.24797C16.0509 3.3516 16.145 3.43072 16.2573 3.47106C16.3695 3.5114 16.4924 3.5103 16.6039 3.46797L17.8469 2.99997L17.2099 3.99997H12.7899L12.1529 2.99997L13.3999 3.46797ZM12.4999 4.99997H13.0899L18.9999 8.77397V8.99997H15.6379L11.0269 6.23297C11.0894 5.88758 11.271 5.57504 11.5402 5.34975C11.8093 5.12445 12.1489 5.00068 12.4999 4.99997ZM10.9999 7.38297L13.6999 8.99997H10.9999V7.38297ZM6.43092 19.005C6.29496 18.9661 6.16481 18.9093 6.04392 18.836C5.72889 18.6397 5.37027 18.5243 4.99992 18.5C4.61783 18.5184 4.24782 18.6397 3.92892 18.851C3.82437 18.918 3.71138 18.9708 3.59292 19.008C2.68392 18.838 1.99992 16.459 1.99992 15C1.99992 14.211 2.28592 13.2 4.41292 13.033C4.41353 13.3843 4.44701 13.7348 4.51292 14.08C4.53746 14.1909 4.59907 14.2902 4.6876 14.3615C4.77612 14.4327 4.88628 14.4717 4.99992 14.472C5.03558 14.4719 5.07114 14.4679 5.10592 14.46C5.23523 14.4319 5.34815 14.3538 5.41994 14.2426C5.49173 14.1314 5.51653 13.9964 5.48891 13.867C5.44022 13.5883 5.41546 13.3059 5.41492 13.023C7.69991 13.142 7.99992 14.191 7.99992 15C7.99992 16.568 7.39992 18.851 6.43092 19.005ZM8.36491 18.259C8.49465 17.9486 8.60128 17.6291 8.68392 17.303C9.72498 17.7969 10.8692 18.0345 12.0208 17.9958C13.1725 17.9572 14.2982 17.6434 15.3037 17.0807C16.3093 16.518 17.1656 15.7227 17.801 14.7614C18.4363 13.8001 18.8324 12.7006 18.9559 11.555C18.9636 11.4895 18.9582 11.4232 18.9402 11.3599C18.9221 11.2965 18.8917 11.2374 18.8508 11.1858C18.8098 11.1342 18.759 11.0913 18.7014 11.0594C18.6437 11.0275 18.5804 11.0073 18.5149 11C18.4494 10.9915 18.3828 10.9963 18.3192 11.0141C18.2556 11.0319 18.1962 11.0623 18.1446 11.1036C18.093 11.1448 18.0502 11.196 18.0188 11.2542C17.9874 11.3123 17.9681 11.3762 17.9619 11.442C17.8526 12.4499 17.4991 13.4159 16.932 14.2562C16.3649 15.0966 15.6014 15.786 14.7077 16.2646C13.8139 16.7432 12.817 16.9965 11.8032 17.0027C10.7894 17.0089 9.7894 16.7676 8.88992 16.3C8.95745 15.8698 8.99421 15.4354 8.99992 15C8.99992 13.706 8.37592 12.178 5.51192 12.016C5.55167 11.8116 5.60853 11.6108 5.68192 11.416C5.72712 11.293 5.72225 11.1572 5.66834 11.0377C5.61442 10.9183 5.51579 10.8248 5.39365 10.7774C5.27151 10.7299 5.13562 10.7323 5.01523 10.7841C4.89485 10.8358 4.79957 10.9327 4.74992 11.054C4.63227 11.3654 4.54683 11.6881 4.49492 12.017C4.20375 12.0318 3.91383 12.0652 3.62692 12.117C3.54663 11.6656 3.50415 11.2084 3.49992 10.75C3.49992 10.529 3.51192 10.255 3.52892 9.99997H19.9709C19.9879 10.255 19.9999 10.529 19.9999 10.75C20.0045 12.129 19.6622 13.4871 19.0044 14.6992C18.3467 15.9113 17.3947 16.9385 16.2359 17.6863C15.0772 18.4342 13.749 18.8785 12.3736 18.9786C10.9982 19.0787 9.61966 18.8312 8.36491 18.259ZM18.9999 17.5C18.9999 17.8978 18.8419 18.2793 18.5606 18.5606C18.2793 18.8419 17.8977 19 17.4999 19H15.9109C17.1111 18.3925 18.165 17.5316 18.9999 16.477V17.5Z" fill="#FE6E4C"/>
</svg>
