<?xml version="1.0" standalone="no"?>
<!DOCTYPE svg PUBLIC "-//W3C//DTD SVG 20010904//EN"
 "http://www.w3.org/TR/2001/REC-SVG-20010904/DTD/svg10.dtd">
<svg version="1.0" xmlns="http://www.w3.org/2000/svg"
 width="18.000000pt" height="18.000000pt" viewBox="0 0 512.000000 512.000000"
 preserveAspectRatio="xMidYMid meet">

<g transform="translate(0.000000,512.000000) scale(0.100000,-0.100000)"
fill="#000000" stroke="none">
<path d="M2352 5110 c-478 -67 -872 -400 -1016 -859 -54 -171 -58 -227 -54
-827 l4 -549 28 -104 c64 -236 158 -405 319 -570 182 -187 420 -312 676 -355
124 -21 378 -21 497 -1 272 47 502 170 692 368 163 171 266 367 318 607 17 77
19 135 19 650 0 438 -3 581 -14 635 -98 501 -467 879 -966 990 -83 19 -408 28
-503 15z m385 -375 c329 -70 582 -292 689 -607 42 -125 46 -184 42 -703 -4
-471 -5 -493 -26 -560 -107 -340 -360 -578 -696 -651 -93 -21 -280 -21 -371
-1 -359 78 -638 359 -710 713 -14 69 -16 149 -13 585 4 572 2 551 93 736 124
250 351 426 630 488 82 18 278 18 362 0z"/>
<path d="M1133 2351 c-161 -68 -286 -153 -437 -300 -304 -297 -531 -727 -640
-1214 -41 -180 -56 -347 -56 -604 l0 -233 2561 0 2561 0 -5 283 c-4 227 -9
304 -26 397 -94 516 -340 1000 -681 1340 -125 125 -229 204 -361 274 -76 41
-207 96 -227 96 -5 0 -35 -43 -68 -96 -32 -53 -85 -127 -116 -166 -32 -39 -58
-74 -58 -78 0 -3 24 -12 53 -19 250 -63 524 -291 732 -611 200 -308 342 -686
371 -987 l7 -73 -2183 0 -2183 0 7 78 c20 229 112 535 235 787 207 420 478
700 766 790 44 14 86 28 93 30 7 3 -16 41 -64 101 -41 53 -94 130 -117 170
-24 42 -49 74 -57 73 -8 0 -56 -17 -107 -38z"/>
</g>
</svg>
