<svg width="40" height="40" viewBox="0 0 20 20" fill="none" xmlns="http://www.w3.org/2000/svg">
<path d="M19.8922 6.22403C19.6412 5.61903 18.8512 5.25703 17.7782 5.25703C17.5707 5.25854 17.3635 5.27056 17.1572 5.29303C17.7129 4.88866 18.1196 4.31217 18.3142 3.65303C18.3627 3.38768 18.3422 3.11432 18.2546 2.85918C18.1671 2.60405 18.0154 2.37569 17.8142 2.19603C17.6322 1.99421 17.4015 1.84232 17.1442 1.7548C16.8869 1.66729 16.6115 1.64705 16.3442 1.69603C15.6853 1.88891 15.1082 2.29341 14.7022 2.84703C14.7243 2.63975 14.736 2.43148 14.7372 2.22303C14.7372 1.15003 14.3762 0.360028 13.7702 0.110028C13.5443 0.0272706 13.2984 0.0159836 13.0658 0.0776977C12.8333 0.139412 12.6254 0.271142 12.4702 0.455028C12.3052 0.619028 11.8332 1.09703 11.6132 3.62803C11.1206 3.48796 10.5963 3.50646 10.1148 3.68091C9.63325 3.85537 9.21882 4.17692 8.9302 4.60003L0.879202 16.1C0.676926 16.3889 0.582893 16.7398 0.613616 17.0911C0.644339 17.4424 0.797855 17.7717 1.0472 18.021L1.9822 18.956C2.23157 19.2054 2.56082 19.3589 2.91213 19.3896C3.26344 19.4203 3.61433 19.3263 3.9032 19.124L15.4032 11.073C15.8269 10.7841 16.1487 10.3688 16.3226 9.88638C16.4966 9.40393 16.514 8.8789 16.3722 8.38603C18.0542 8.24003 19.1202 7.95203 19.5442 7.52803C19.7292 7.37278 19.8618 7.1643 19.9241 6.93098C19.9864 6.69765 19.9752 6.4508 19.8922 6.22403ZM16.5362 2.67803C16.6436 2.65971 16.7539 2.67097 16.8554 2.71061C16.9569 2.75025 17.0457 2.81677 17.1122 2.90303C17.1963 2.96824 17.2612 3.05502 17.2999 3.15416C17.3387 3.25329 17.3498 3.36106 17.3322 3.46603C17.1772 4.28103 15.5322 5.30703 14.3522 5.86603L14.1362 5.65003C14.6932 4.47103 15.7182 2.83303 16.5362 2.67803ZM13.1822 1.16103C13.2872 1.06103 13.3662 1.02203 13.3942 1.03303C13.5032 1.07803 13.7422 1.44003 13.7422 2.22203C13.6979 3.09916 13.5495 3.96792 13.3002 4.81003L12.7512 4.26103C12.7012 4.21103 12.6422 4.17603 12.5882 4.13103C12.7232 2.13903 13.0212 1.32203 13.1822 1.16103ZM3.3302 18.3C3.23386 18.3676 3.11675 18.3991 2.9995 18.3888C2.88225 18.3786 2.77237 18.3273 2.6892 18.244L1.7542 17.309C1.67173 17.2257 1.62114 17.1161 1.61127 16.9993C1.6014 16.8825 1.63288 16.766 1.7002 16.67L3.2072 14.518L5.4822 16.8L3.3302 18.3ZM14.8302 10.248L12.9672 11.548L11.2262 9.80603C11.1324 9.71214 11.0052 9.65934 10.8726 9.65925C10.7399 9.65916 10.6126 9.71177 10.5187 9.80553C10.4248 9.89928 10.372 10.0265 10.3719 10.1592C10.3718 10.2919 10.4244 10.4191 10.5182 10.513L12.1362 12.131L9.6362 13.878L7.8502 12.092C7.7559 12.0009 7.6296 11.9506 7.4985 11.9517C7.3674 11.9528 7.242 12.0054 7.14929 12.0981C7.05659 12.1908 7.004 12.3162 7.00286 12.4473C7.00173 12.5784 7.05212 12.7047 7.1432 12.799L8.8092 14.466L6.3092 16.213L3.7872 13.686L7.8632 7.86303L9.0302 9.03003C9.07633 9.07778 9.1315 9.11588 9.1925 9.14208C9.2535 9.16828 9.31911 9.18208 9.3855 9.18265C9.45189 9.18323 9.51773 9.17058 9.57918 9.14544C9.64063 9.1203 9.69645 9.08317 9.7434 9.03623C9.79035 8.98928 9.82747 8.93345 9.85261 8.87201C9.87775 8.81056 9.8904 8.74472 9.88983 8.67833C9.88925 8.61194 9.87546 8.54633 9.84925 8.48533C9.82305 8.42432 9.78496 8.36915 9.7372 8.32303L8.4462 7.03103L9.7462 5.16803C9.87175 4.98814 10.0354 4.83815 10.2255 4.72874C10.4157 4.61933 10.6276 4.55319 10.8462 4.53503C10.8902 4.53503 10.9342 4.52903 10.9772 4.52903C11.3747 4.52911 11.756 4.68701 12.0372 4.96803L15.0302 7.96103C15.0643 7.99866 15.0961 8.0384 15.1252 8.08003C15.1534 8.17634 15.2107 8.26158 15.2892 8.32403C15.464 8.64518 15.5137 9.01966 15.4287 9.37529C15.3438 9.73092 15.1302 10.0425 14.8292 10.25L14.8302 10.248ZM18.8382 6.81603C18.6752 6.97803 17.8562 7.27603 15.8692 7.41603C15.8242 7.36203 15.7882 7.30303 15.7382 7.25303L15.1892 6.70403C16.0309 6.45211 16.8998 6.30171 17.7772 6.25603C18.5592 6.25603 18.9212 6.49603 18.9672 6.60503C18.9782 6.63103 18.9442 6.71203 18.8392 6.81803L18.8382 6.81603Z" fill="#3A9B7A"/>
</svg>
